<svg width="20" height="18" viewBox="0 0 20 18" fill="none" xmlns="http://www.w3.org/2000/svg">
<path d="M10 0C11.808 0 13.4803 0.342851 15.0167 1.02855C16.5532 1.71426 17.7679 2.64667 18.6607 3.82579C19.5536 5.0049 20 6.29105 20 7.68422C20 9.0774 19.5536 10.3654 18.6607 11.5481C17.7679 12.7309 16.5551 13.6651 15.0223 14.3508C13.4896 15.0365 11.8155 15.3793 10 15.3793C9.42708 15.3793 8.83557 15.3394 8.22545 15.2596C5.57664 17.0519 4.16667 17.9589 3.99554 17.9806C3.91369 18.0097 3.83557 18.006 3.76116 17.9698C3.7314 17.948 3.70908 17.919 3.6942 17.8827C3.67932 17.8464 3.67188 17.8138 3.67188 17.7847V17.7412C3.71652 17.4582 4.05506 16.2791 4.6875 14.2038C3.25149 13.5073 2.11124 12.5839 1.26674 11.4338C0.422247 10.2837 0 9.03386 0 7.68422C0 6.29105 0.446429 5.0049 1.33929 3.82579C2.23214 2.64667 3.4468 1.71426 4.98326 1.02855C6.51972 0.342851 8.19196 0 10 0Z" fill="#131200"/>
</svg>
