<svg width="24" height="24" viewBox="0 0 24 24" fill="none" xmlns="http://www.w3.org/2000/svg">
<path d="M3 14.25H2.25V15.75H3V14.25ZM19 15.75C19.4142 15.75 19.75 15.4142 19.75 15C19.75 14.5858 19.4142 14.25 19 14.25V15.75ZM3 15.75H19V14.25H3V15.75Z" fill="#4F4F4F"/>
<path d="M13.5303 8.46967L13 7.93934L11.9393 9L12.4697 9.53033L13.5303 8.46967ZM18.4697 15.5303C18.7626 15.8232 19.2374 15.8232 19.5303 15.5303C19.8232 15.2374 19.8232 14.7626 19.5303 14.4697L18.4697 15.5303ZM12.4697 9.53033L18.4697 15.5303L19.5303 14.4697L13.5303 8.46967L12.4697 9.53033Z" fill="#4F4F4F"/>
</svg>
